<svg width="20" height="16" viewBox="0 0 20 16" fill="none" xmlns="http://www.w3.org/2000/svg">
<path d="M1.49186 0.191101C1.0799 0.191101 0.743896 0.527102 0.743896 0.939069C0.743896 1.35103 1.0799 1.68704 1.49186 1.68704H3.15142L5.11483 9.54069C5.28137 10.2069 5.87741 10.6626 6.56402 10.6626H15.8902C16.5652 10.6626 17.1378 10.2156 17.3161 9.56407L19.2561 2.435H17.69L15.8902 9.16671H6.56402L4.6006 1.31305C4.43406 0.646894 3.83803 0.191101 3.15142 0.191101H1.49186ZM14.9553 10.6626C13.7252 10.6626 12.7114 11.6765 12.7114 12.9065C12.7114 14.1366 13.7252 15.1505 14.9553 15.1505C16.1853 15.1505 17.1992 14.1366 17.1992 12.9065C17.1992 11.6765 16.1853 10.6626 14.9553 10.6626ZM8.22357 10.6626C6.99352 10.6626 5.97967 11.6765 5.97967 12.9065C5.97967 14.1366 6.99352 15.1505 8.22357 15.1505C9.45363 15.1505 10.4675 14.1366 10.4675 12.9065C10.4675 11.6765 9.45363 10.6626 8.22357 10.6626ZM10.4675 0.191101V2.435H8.22357V3.93094H10.4675V6.17484H11.9634V3.93094H14.2073V2.435H11.9634V0.191101H10.4675ZM8.22357 12.1586C8.6443 12.1586 8.97154 12.4858 8.97154 12.9065C8.97154 13.3273 8.6443 13.6545 8.22357 13.6545C7.80284 13.6545 7.4756 13.3273 7.4756 12.9065C7.4756 12.4858 7.80284 12.1586 8.22357 12.1586ZM14.9553 12.1586C15.376 12.1586 15.7032 12.4858 15.7032 12.9065C15.7032 13.3273 15.376 13.6545 14.9553 13.6545C14.5345 13.6545 14.2073 13.3273 14.2073 12.9065C14.2073 12.4858 14.5345 12.1586 14.9553 12.1586Z" fill="white"/>
</svg>
