<svg width="12" height="15" viewBox="0 0 12 15" fill="none" xmlns="http://www.w3.org/2000/svg">
<g clip-path="url(#clip0_942_5616)">
<path fill-rule="evenodd" clip-rule="evenodd" d="M7.9537 2.28024C8.41188 1.68878 8.75921 0.852824 8.63358 -0.000488281C7.88473 0.0515531 7.00943 0.53067 6.4987 1.15517C6.03313 1.72101 5.6505 2.56276 5.79994 3.37973C6.61858 3.40534 7.4635 2.91465 7.9537 2.28024ZM12.0001 10.307C11.6725 11.0372 11.5148 11.3635 11.0928 12.0103C10.5041 12.9132 9.67392 14.0375 8.64425 14.0457C7.73036 14.0556 7.4947 13.4468 6.25401 13.4543C5.01332 13.4609 4.75467 14.0573 3.83913 14.0482C2.81029 14.0391 2.02366 13.0247 1.43493 12.1218C-0.212213 9.59906 -0.385467 6.63767 0.630243 5.06239C1.35282 3.94391 2.49252 3.28968 3.56324 3.28968C4.65285 3.28968 5.33847 3.89105 6.24087 3.89105C7.11617 3.89105 7.64907 3.28803 8.90947 3.28803C9.8636 3.28803 10.8744 3.81092 11.5937 4.71297C9.23545 6.01317 9.61727 9.40081 12.0001 10.307Z" fill="#3A3A3C"/>
</g>
<defs>
<clipPath id="clip0_942_5616">
<rect width="12" height="14.0488" fill="white"/>
</clipPath>
</defs>
</svg>
