<svg width="25" height="24" viewBox="0 0 25 24" fill="none" xmlns="http://www.w3.org/2000/svg">
<path fill-rule="evenodd" clip-rule="evenodd" d="M14.5 3V3.28988C17.3915 4.15043 19.5 6.82898 19.5 10V17H20.5V19H4.5V17H5.5V10C5.5 6.82898 7.60851 4.15043 10.5 3.28988V3C10.5 1.89543 11.3954 1 12.5 1C13.6046 1 14.5 1.89543 14.5 3ZM7.5 17H17.5V10C17.5 7.23858 15.2614 5 12.5 5C9.73858 5 7.5 7.23858 7.5 10V17ZM14.5 21V20H10.5V21C10.5 22.1046 11.3954 23 12.5 23C13.6046 23 14.5 22.1046 14.5 21Z" fill="#2982E2"/>
<circle cx="18.5" cy="5.5" r="4.25" fill="#2982E2" stroke="white" stroke-width="1.5"/>
</svg>
