<svg width="18" height="18" viewBox="0 0 18 18" fill="none" xmlns="http://www.w3.org/2000/svg">
<path d="M1.125 3.9375V13.5H16.875V3.9375H1.125ZM3.375 5.0625H14.625C14.625 5.68406 15.1284 6.1875 15.75 6.1875V11.25C15.1284 11.25 14.625 11.7534 14.625 12.375H3.375C3.375 11.7534 2.87156 11.25 2.25 11.25V6.1875C2.87156 6.1875 3.375 5.68406 3.375 5.0625ZM9 6.1875C7.75631 6.1875 6.75 7.3215 6.75 8.71875C6.75 10.116 7.75631 11.25 9 11.25C10.2437 11.25 11.25 10.116 11.25 8.71875C11.25 7.3215 10.2437 6.1875 9 6.1875ZM9 7.3125C9.61987 7.3125 10.125 7.94306 10.125 8.71875C10.125 9.49444 9.61987 10.125 9 10.125C8.38013 10.125 7.875 9.49444 7.875 8.71875C7.875 7.94306 8.38013 7.3125 9 7.3125ZM4.78125 7.875C4.3155 7.875 3.9375 8.253 3.9375 8.71875C3.9375 9.1845 4.3155 9.5625 4.78125 9.5625C5.247 9.5625 5.625 9.1845 5.625 8.71875C5.625 8.253 5.247 7.875 4.78125 7.875ZM13.2188 7.875C12.753 7.875 12.375 8.253 12.375 8.71875C12.375 9.1845 12.753 9.5625 13.2188 9.5625C13.6845 9.5625 14.0625 9.1845 14.0625 8.71875C14.0625 8.253 13.6845 7.875 13.2188 7.875Z" fill="#667403"/>
</svg>
