<svg width="20" height="20" viewBox="0 0 20 20" fill="none" xmlns="http://www.w3.org/2000/svg">
<path d="M10 0.78125L9.49219 1.52344C9.49219 1.52344 9.15527 1.99463 8.82812 2.55859C8.66455 2.8418 8.51074 3.13721 8.37891 3.4375C8.24707 3.73779 8.125 4.01367 8.125 4.375C8.125 5.40283 8.97217 6.25 10 6.25C11.0278 6.25 11.875 5.40283 11.875 4.375C11.875 4.01367 11.7529 3.73779 11.6211 3.4375C11.4893 3.13721 11.3354 2.8418 11.1719 2.55859C10.8447 1.99463 10.5078 1.52344 10.5078 1.52344L10 0.78125ZM10 6.25H8.125V8.75H4.375C2.99316 8.75 1.875 9.86816 1.875 11.25C1.875 11.8848 2.10938 12.4683 2.5 12.9102V17.5H17.5V12.9102C17.8906 12.4683 18.125 11.8848 18.125 11.25C18.125 9.86816 17.0068 8.75 15.625 8.75H11.875V6.25H10ZM10 3.04688C10.0415 3.11523 10.0366 3.11035 10.0781 3.18359C10.2271 3.43994 10.3857 3.71338 10.4883 3.94531C10.5908 4.17725 10.625 4.39209 10.625 4.375C10.625 4.72168 10.3467 5 10 5C9.65332 5 9.375 4.72168 9.375 4.375C9.375 4.39209 9.40918 4.17725 9.51172 3.94531C9.61426 3.71338 9.77295 3.43994 9.92188 3.18359C9.96338 3.11035 9.9585 3.11523 10 3.04688ZM9.375 7.5H10.625V8.75H9.375V7.5ZM4.375 10H15.625C16.3696 10 16.875 10.5054 16.875 11.25C16.875 11.9946 16.3696 12.5 15.625 12.5C14.8804 12.5 14.375 11.9946 14.375 11.25H13.125C13.125 11.9946 12.6196 12.5 11.875 12.5C11.1304 12.5 10.625 11.9946 10.625 11.25H9.375C9.375 11.9946 8.86963 12.5 8.125 12.5C7.38037 12.5 6.875 11.9946 6.875 11.25H5.625C5.625 11.9946 5.11963 12.5 4.375 12.5C3.63037 12.5 3.125 11.9946 3.125 11.25C3.125 10.5054 3.63037 10 4.375 10ZM6.25 12.9102C6.70898 13.4277 7.37793 13.75 8.125 13.75C8.87207 13.75 9.54102 13.4277 10 12.9102C10.459 13.4277 11.1279 13.75 11.875 13.75C12.6221 13.75 13.291 13.4277 13.75 12.9102C14.209 13.4277 14.8779 13.75 15.625 13.75C15.8423 13.75 16.0498 13.7036 16.25 13.6523V16.25H3.75V13.6523C3.9502 13.7036 4.15772 13.75 4.375 13.75C5.12207 13.75 5.79102 13.4277 6.25 12.9102Z" fill="#FC832D"/>
</svg>
