<svg width="21" height="20" viewBox="0 0 21 20" fill="none" xmlns="http://www.w3.org/2000/svg">
<g clip-path="url(#clip0_6657_4612)">
<path d="M10.4999 19.1668C15.5625 19.1668 19.6666 15.0628 19.6666 10.0002C19.6666 4.93755 15.5625 0.833496 10.4999 0.833496C5.43731 0.833496 1.33325 4.93755 1.33325 10.0002C1.33325 15.0628 5.43731 19.1668 10.4999 19.1668Z" stroke="#667403" stroke-width="2" stroke-miterlimit="10" stroke-linecap="square"/>
<path d="M10.5 5.8335V10.8335" stroke="#667403" stroke-width="2" stroke-miterlimit="10" stroke-linecap="square"/>
<path d="M10.4998 15.0002C10.9601 15.0002 11.3332 14.6271 11.3332 14.1668C11.3332 13.7066 10.9601 13.3335 10.4998 13.3335C10.0396 13.3335 9.6665 13.7066 9.6665 14.1668C9.6665 14.6271 10.0396 15.0002 10.4998 15.0002Z" fill="#667403"/>
</g>
<defs>
<clipPath id="clip0_6657_4612">
<rect width="20" height="20" fill="white" transform="translate(0.5)"/>
</clipPath>
</defs>
</svg>
