<svg width="25" height="24" viewBox="0 0 25 24" fill="none" xmlns="http://www.w3.org/2000/svg">
<g clip-path="url(#clip0_5673_207)">
<path d="M12.5 1C6.4 1 1.5 5.9 1.5 12C1.5 18.1 6.4 23 12.5 23C18.6 23 23.5 18.1 23.5 12C23.5 5.9 18.6 1 12.5 1ZM12.5 5C13.7 5 14.8 5.3 15.8 5.8L6.3 15.3C5.8 14.3 5.5 13.2 5.5 12C5.5 8.1 8.6 5 12.5 5ZM12.5 19C11.3 19 10.2 18.7 9.2 18.2L18.7 8.7C19.2 9.7 19.5 10.8 19.5 12C19.5 15.9 16.4 19 12.5 19Z" stroke="#3A3A3C" stroke-width="2" stroke-miterlimit="10" stroke-linecap="square"/>
</g>
<defs>
<clipPath id="clip0_5673_207">
<rect width="24" height="24" fill="white" transform="translate(0.5)"/>
</clipPath>
</defs>
</svg>
