<svg width="20" height="20" viewBox="0 0 20 20" fill="none" xmlns="http://www.w3.org/2000/svg">
<path d="M2.5 4.375C2.15576 4.375 1.875 4.65576 1.875 5C1.875 5.34424 2.15576 5.625 2.5 5.625H3.88672L5.52734 12.1875C5.6665 12.7441 6.16455 13.125 6.73828 13.125H14.5312C15.0952 13.125 15.5737 12.7515 15.7227 12.207L17.3438 6.25H16.0352L14.5312 11.875H6.73828L5.09766 5.3125C4.9585 4.75586 4.46045 4.375 3.88672 4.375H2.5ZM13.75 13.125C12.7222 13.125 11.875 13.9722 11.875 15C11.875 16.0278 12.7222 16.875 13.75 16.875C14.7778 16.875 15.625 16.0278 15.625 15C15.625 13.9722 14.7778 13.125 13.75 13.125ZM8.125 13.125C7.09717 13.125 6.25 13.9722 6.25 15C6.25 16.0278 7.09717 16.875 8.125 16.875C9.15283 16.875 10 16.0278 10 15C10 13.9722 9.15283 13.125 8.125 13.125ZM10 4.375V7.5H8.125L10.625 10L13.125 7.5H11.25V4.375H10ZM8.125 14.375C8.47656 14.375 8.75 14.6484 8.75 15C8.75 15.3516 8.47656 15.625 8.125 15.625C7.77344 15.625 7.5 15.3516 7.5 15C7.5 14.6484 7.77344 14.375 8.125 14.375ZM13.75 14.375C14.1016 14.375 14.375 14.6484 14.375 15C14.375 15.3516 14.1016 15.625 13.75 15.625C13.3984 15.625 13.125 15.3516 13.125 15C13.125 14.6484 13.3984 14.375 13.75 14.375Z" fill="#FC832D"/>
</svg>
