<svg width="19" height="19" viewBox="0 0 19 19" fill="none" xmlns="http://www.w3.org/2000/svg">
<path d="M15.25 0.875C16.8379 0.875 18.125 2.16219 18.125 3.75V15.25C18.125 16.8379 16.8379 18.125 15.25 18.125H3.75C2.16219 18.125 0.875 16.8379 0.875 15.25V3.75C0.875 2.16219 2.16219 0.875 3.75 0.875H15.25ZM13.7835 5.6376L7.58333 11.8377L5.21657 9.47096C4.93588 9.19027 4.48079 9.19027 4.2001 9.47096C3.91941 9.75166 3.91941 10.2067 4.2001 10.4874L7.0751 13.3624C7.35579 13.6431 7.81084 13.6431 8.09154 13.3624L14.7999 6.65407C15.0806 6.37338 15.0806 5.91829 14.7999 5.6376C14.5192 5.35691 14.0642 5.35691 13.7835 5.6376Z" fill="#2982E2"/>
</svg>
