<svg width="20" height="20" viewBox="0 0 20 20" fill="none" xmlns="http://www.w3.org/2000/svg">
<g clip-path="url(#clip0_7285_39797)">
<path d="M15.8331 17.0718V16.451C15.8331 15.5535 15.3523 14.7251 14.5731 14.2801L11.8906 12.7451" stroke="#2982E2" stroke-width="2" stroke-miterlimit="10"/>
<path d="M8.10518 12.7437L5.42602 14.2803C4.64685 14.7253 4.16602 15.5537 4.16602 16.4512V17.072" stroke="#2982E2" stroke-width="2" stroke-miterlimit="10"/>
<path d="M9.99935 13.3333C8.15852 13.3333 6.66602 11.8408 6.66602 10V8.33333C6.66602 6.4925 8.15852 5 9.99935 5C11.8402 5 13.3327 6.4925 13.3327 8.33333V10C13.3327 11.8408 11.8402 13.3333 9.99935 13.3333Z" stroke="#2982E2" stroke-width="2" stroke-miterlimit="10" stroke-linecap="square"/>
<path d="M9.99967 19.1668C15.0623 19.1668 19.1663 15.0628 19.1663 10.0002C19.1663 4.93755 15.0623 0.833496 9.99967 0.833496C4.93706 0.833496 0.833008 4.93755 0.833008 10.0002C0.833008 15.0628 4.93706 19.1668 9.99967 19.1668Z" stroke="#2982E2" stroke-width="2" stroke-miterlimit="10" stroke-linecap="square"/>
</g>
<defs>
<clipPath id="clip0_7285_39797">
<rect width="20" height="20" fill="white"/>
</clipPath>
</defs>
</svg>
