<svg width="106" height="112" viewBox="0 0 106 112" fill="none" xmlns="http://www.w3.org/2000/svg">
<path d="M62.9034 1.74951L62.9168 1.76292L84.0787 22.8822C84.4987 23.3003 84.7356 23.8685 84.7346 24.4629M62.9034 1.74951L84.2346 24.4621M62.9034 1.74951L62.8889 1.73716C62.8881 1.73644 62.8873 1.73573 62.8864 1.73503C62.4679 1.30822 61.8939 1.0672 61.2963 1.0672C61.2304 1.0672 61.1647 1.0702 61.0993 1.07624C61.0338 1.07058 60.9662 1.0672 60.8969 1.0672L30.9698 1.0672L30.9693 1.0672C25.4054 1.0729 20.8981 5.58202 20.8907 11.1449V11.1455V27.2256L2.32259 42.9737C1.57339 43.3521 1.09875 44.1199 1.09778 44.9628V44.9634L1.09778 98.6888L1.09778 98.6894C1.10585 105.384 6.53062 110.809 13.2254 110.817H13.226H92.3993H92.3999C99.0946 110.809 104.521 105.384 104.528 98.6892V98.6888V44.9634C104.528 44.1676 104.104 43.4321 103.416 43.0339L84.7346 27.2146M62.9034 1.74951L84.2346 27.4464M84.7346 24.4629L84.2346 24.4621M84.7346 24.4629V24.4621H84.2346M84.7346 24.4629V27.2146M84.2346 24.4621V27.4464M84.7346 27.2146L84.5577 27.0648L84.2346 27.4464M84.7346 27.2146V27.4464H84.2346M13.2258 106.354H13.226H92.3993H92.3996C93.8825 106.354 95.3293 105.923 96.565 105.118L73.1695 81.3163C72.3047 80.4366 72.3176 79.024 73.1955 78.1601L73.1959 78.1597C74.0753 77.2962 75.4886 77.3078 76.3527 78.1859L76.3529 78.1861L99.452 101.69C99.8564 100.744 100.065 99.7228 100.064 98.6893V98.6888V49.8293L60.6718 83.2382L13.2258 106.354ZM13.2258 106.354C11.7386 106.354 10.2875 105.92 9.04932 105.111L32.3173 81.3117C33.1794 80.4305 33.1633 79.017 32.2825 78.1552L32.2823 78.155M13.2258 106.354L32.2823 78.155M32.2823 78.155C31.4006 77.2932 29.9871 77.3091 29.1251 78.191L6.16799 101.673C5.76778 100.732 5.56064 99.7169 5.56124 98.6891V98.6888M32.2823 78.155L5.56124 98.6888M5.56124 98.6888V49.86M5.56124 98.6888H5.06124V49.4366L5.56124 49.86M5.56124 49.86L21.6811 63.5104L21.6826 63.5119L21.6985 63.5254L44.988 83.2455C49.5081 87.0938 56.1541 87.0918 60.6707 83.2391L5.56124 49.86ZM30.9704 5.53066L59.0646 5.53066V16.6596V16.6601C59.0703 22.2231 63.5785 26.7322 69.1416 26.7379H69.1422H80.2704V60.7625L57.7843 79.8344L57.7833 79.8353C54.93 82.2685 50.7304 82.2707 47.875 79.8396L47.874 79.8388L25.355 60.7715V11.1461C25.3585 8.04657 27.8709 5.53421 30.9704 5.53066ZM98.8432 45.0101L84.7346 56.9765V33.0636L98.8432 45.0101ZM63.5281 16.6583V8.67838L77.1516 22.2737H69.1427C66.0433 22.2702 63.5316 19.7586 63.5281 16.6583ZM6.78212 45.0444L20.8907 33.078V56.9916L6.78212 45.0444Z" fill="url(#paint0_linear_7079_39652)" stroke="url(#paint1_linear_7079_39652)"/>
<defs>
<linearGradient id="paint0_linear_7079_39652" x1="170.954" y1="-68.4053" x2="-42.272" y2="129.173" gradientUnits="userSpaceOnUse">
<stop stop-color="#9FEFFE"/>
<stop offset="0.494792" stop-color="#65C7F7"/>
<stop offset="0.96875" stop-color="#0052D4"/>
</linearGradient>
<linearGradient id="paint1_linear_7079_39652" x1="170.954" y1="-68.4053" x2="-42.272" y2="129.173" gradientUnits="userSpaceOnUse">
<stop stop-color="#9FEFFE"/>
<stop offset="0.494792" stop-color="#65C7F7"/>
<stop offset="0.96875" stop-color="#0052D4"/>
</linearGradient>
</defs>
</svg>
