<svg width="12" height="12" viewBox="0 0 12 12" fill="none" xmlns="http://www.w3.org/2000/svg">
<g clip-path="url(#clip0_942_5612)">
<path fill-rule="evenodd" clip-rule="evenodd" d="M6.40959 12H0.662308C0.296418 12 0 11.7034 0 11.3377V0.662304C0 0.296464 0.296465 0 0.662308 0H11.3377C11.7035 0 12 0.296464 12 0.662304V11.3377C12 11.7034 11.7034 12 11.3377 12H8.27983V7.35294H9.83963L10.0732 5.5419H8.27983V4.38566C8.27983 3.86132 8.42543 3.504 9.17732 3.504L10.1363 3.50358V1.88377C9.97047 1.8617 9.4012 1.81239 8.73889 1.81239C7.35621 1.81239 6.40959 2.65638 6.40959 4.2063V5.5419H4.84578V7.35294H6.40959V12Z" fill="white"/>
</g>
<defs>
<clipPath id="clip0_942_5612">
<rect width="12" height="12" fill="white"/>
</clipPath>
</defs>
</svg>
