<svg width="17" height="15" viewBox="0 0 17 15" fill="none" xmlns="http://www.w3.org/2000/svg">
<path fill-rule="evenodd" clip-rule="evenodd" d="M0.576923 2.69235H1.62039C1.74554 3.13526 2.01186 3.52522 2.37889 3.80291C2.74593 4.08061 3.1936 4.23086 3.65385 4.23086C4.1141 4.23086 4.56177 4.08061 4.9288 3.80291C5.29583 3.52522 5.56216 3.13526 5.6873 2.69235H15.5769C15.7299 2.69235 15.8767 2.63158 15.9849 2.52338C16.0931 2.41519 16.1538 2.26844 16.1538 2.11543C16.1538 1.96242 16.0931 1.81568 15.9849 1.70748C15.8767 1.59929 15.7299 1.53851 15.5769 1.53851H5.6873C5.56216 1.0956 5.29583 0.705647 4.9288 0.42795C4.56177 0.150254 4.1141 0 3.65385 0C3.1936 0 2.74593 0.150254 2.37889 0.42795C2.01186 0.705647 1.74554 1.0956 1.62039 1.53851H0.576923C0.423914 1.53851 0.277168 1.59929 0.168973 1.70748C0.0607794 1.81568 0 1.96242 0 2.11543C0 2.26844 0.0607794 2.41519 0.168973 2.52338C0.277168 2.63158 0.423914 2.69235 0.576923 2.69235ZM3.65385 1.15389C3.84402 1.15389 4.02992 1.21031 4.18804 1.31596C4.34617 1.42162 4.46941 1.57179 4.54219 1.74748C4.61497 1.92318 4.63401 2.11648 4.59691 2.303C4.55981 2.48952 4.46823 2.66089 4.33375 2.79536C4.19928 2.92984 4.02796 3.02137 3.84144 3.05847C3.65492 3.09557 3.46157 3.07655 3.28587 3.00377C3.11018 2.931 2.96001 2.80775 2.85436 2.64963C2.7487 2.49151 2.69231 2.30561 2.69231 2.11543C2.69231 1.86042 2.79361 1.61582 2.97394 1.4355C3.15426 1.25518 3.39883 1.15389 3.65385 1.15389ZM15.5769 6.92312H10.0454C9.89104 6.52658 9.62054 6.18592 9.26929 5.94572C8.91805 5.70552 8.50245 5.57697 8.07692 5.57697C7.6514 5.57697 7.2358 5.70552 6.88455 5.94572C6.53331 6.18592 6.26281 6.52658 6.10847 6.92312H0.576923C0.423914 6.92312 0.277168 6.9839 0.168973 7.0921C0.0607794 7.20029 0 7.34704 0 7.50005C0 7.65306 0.0607794 7.7998 0.168973 7.908C0.277168 8.01619 0.423914 8.07697 0.576923 8.07697H5.99999C6.08954 8.56287 6.34651 9.00202 6.72622 9.31814C7.10592 9.63427 7.58439 9.80741 8.07847 9.80741C8.57255 9.80741 9.051 9.63427 9.43071 9.31814C9.81042 9.00202 10.0674 8.56287 10.1569 8.07697H15.58C15.733 8.07656 15.8796 8.0154 15.9875 7.90692C16.0954 7.79843 16.1558 7.65151 16.1554 7.4985C16.155 7.34549 16.0938 7.19892 15.9853 7.09102C15.8768 6.98311 15.7299 6.92272 15.5769 6.92312ZM8.07692 8.65389C7.88675 8.65389 7.70085 8.59748 7.54272 8.49182C7.3846 8.38617 7.26136 8.236 7.18858 8.0603C7.1158 7.8846 7.09676 7.69131 7.13386 7.50479C7.17096 7.31827 7.26254 7.1469 7.39702 7.01242C7.53149 6.87795 7.70281 6.78642 7.88933 6.74931C8.07585 6.71221 8.2692 6.73123 8.44489 6.80401C8.62059 6.87679 8.77076 7.00003 8.87641 7.15816C8.98207 7.31628 9.03846 7.50218 9.03846 7.69235C9.03846 7.94737 8.93715 8.19196 8.75683 8.37229C8.57651 8.55261 8.33194 8.65389 8.07692 8.65389ZM15.5769 12.3077H14.5335C14.4083 11.8648 14.142 11.4749 13.775 11.1972C13.4079 10.9195 12.9602 10.7692 12.5 10.7692C12.0398 10.7692 11.5921 10.9195 11.225 11.1972C10.858 11.4749 10.5917 11.8648 10.4665 12.3077H0.576923C0.423914 12.3077 0.277168 12.3685 0.168973 12.4767C0.0607794 12.5849 0 12.7317 0 12.8847C0 13.0377 0.0607794 13.1844 0.168973 13.2926C0.277168 13.4008 0.423914 13.4616 0.576923 13.4616H10.4665C10.5917 13.9045 10.858 14.2944 11.225 14.5721C11.5921 14.8498 12.0398 15.0001 12.5 15.0001C12.9602 15.0001 13.4079 14.8498 13.775 14.5721C14.142 14.2944 14.4083 13.9045 14.5335 13.4616H15.5769C15.7299 13.4616 15.8767 13.4008 15.9849 13.2926C16.0931 13.1844 16.1538 13.0377 16.1538 12.8847C16.1538 12.7317 16.0931 12.5849 15.9849 12.4767C15.8767 12.3685 15.7299 12.3077 15.5769 12.3077ZM12.5 13.8462C12.3098 13.8462 12.1239 13.7898 11.9658 13.6841C11.8077 13.5785 11.6844 13.4283 11.6117 13.2526C11.5389 13.0769 11.5198 12.8836 11.5569 12.6971C11.594 12.5106 11.6856 12.3392 11.8201 12.2047C11.9546 12.0703 12.1259 11.9787 12.3124 11.9416C12.4989 11.9045 12.6923 11.9235 12.868 11.9963C13.0437 12.0691 13.1938 12.1923 13.2995 12.3505C13.4051 12.5086 13.4615 12.6945 13.4615 12.8847C13.4615 13.1397 13.3602 13.3843 13.1799 13.5646C12.9996 13.7449 12.755 13.8462 12.5 13.8462Z" fill="white"/>
</svg>
