<svg width="12" height="14" viewBox="0 0 12 14" fill="none" xmlns="http://www.w3.org/2000/svg">
<g clip-path="url(#clip0_942_5608)">
<path fill-rule="evenodd" clip-rule="evenodd" d="M6.08434 5.78664V8.21239C6.08434 8.21239 8.42194 8.20923 9.37375 8.20923C8.85833 9.78178 8.05688 10.6381 6.08434 10.6381C4.08814 10.6381 2.53012 9.00906 2.53012 6.99951C2.53012 4.98997 4.08814 3.3609 6.08434 3.3609C7.13977 3.3609 7.8214 3.73435 8.44664 4.25485C8.94712 3.75103 8.90531 3.67921 10.1786 2.4687C9.09772 1.47827 7.66109 0.874512 6.08434 0.874512C2.72404 0.874512 0 3.61675 0 6.99951C0 10.3822 2.72404 13.1245 6.08434 13.1245C11.1071 13.1245 12.3347 8.72178 11.9277 5.78664H6.08434Z" fill="white"/>
</g>
<defs>
<clipPath id="clip0_942_5608">
<rect width="12" height="12.25" fill="white" transform="translate(0 0.875)"/>
</clipPath>
</defs>
</svg>
