<svg width="16" height="17" viewBox="0 0 16 17" fill="none" xmlns="http://www.w3.org/2000/svg">
<g clip-path="url(#clip0_1176_5640)">
<path fill-rule="evenodd" clip-rule="evenodd" d="M3.34548 8.16983C3.34548 7.65093 3.43166 7.15346 3.58548 6.68685L0.893118 4.63086C0.36839 5.69625 0.0727539 6.89673 0.0727539 8.16983C0.0727539 9.44184 0.368027 10.6416 0.892027 11.7063L3.58294 9.64628C3.43057 9.18185 3.34548 8.68619 3.34548 8.16983Z" fill="#FBBC05"/>
<path fill-rule="evenodd" clip-rule="evenodd" d="M8.0727 3.44973C9.19998 3.44973 10.2182 3.84916 11.0182 4.50278L13.3454 2.1788C11.9272 0.944194 10.1091 0.181641 8.0727 0.181641C4.91125 0.181641 2.19416 1.98962 0.893066 4.63132L3.58543 6.68731C4.20579 4.80417 5.97416 3.44973 8.0727 3.44973Z" fill="#EB4335"/>
<path fill-rule="evenodd" clip-rule="evenodd" d="M8.0727 12.8899C5.97416 12.8899 4.20579 11.5355 3.58543 9.65234L0.893066 11.708C2.19416 14.35 4.91125 16.158 8.0727 16.158C10.024 16.158 11.8869 15.4652 13.2851 14.167L10.7294 12.1913C10.0083 12.6455 9.10034 12.8899 8.0727 12.8899Z" fill="#34A853"/>
<path fill-rule="evenodd" clip-rule="evenodd" d="M15.7091 8.17123C15.7091 7.69918 15.6364 7.19081 15.5273 6.71875H8.07275V9.80527H12.3637C12.1491 10.8576 11.5651 11.6666 10.7295 12.1932L13.2851 14.1689C14.7538 12.8057 15.7091 10.7752 15.7091 8.17123Z" fill="#4285F4"/>
</g>
<defs>
<clipPath id="clip0_1176_5640">
<rect width="16" height="16.3404" fill="white"/>
</clipPath>
</defs>
</svg>
