<svg width="21" height="21" viewBox="0 0 21 21" fill="none" xmlns="http://www.w3.org/2000/svg">
<g clip-path="url(#clip0_1061_2493)">
<path d="M3.24854 8.60742V18.1895C3.24854 18.3618 3.31698 18.527 3.43881 18.6489C3.56064 18.7707 3.72587 18.8391 3.89817 18.8391H7.79596V13.3173C7.79596 13.0588 7.89863 12.811 8.08137 12.6282C8.26412 12.4455 8.51197 12.3428 8.77041 12.3428H12.0186C12.277 12.3428 12.5249 12.4455 12.7076 12.6282C12.8904 12.811 12.993 13.0588 12.993 13.3173V18.8391H16.8908C17.0631 18.8391 17.2284 18.7707 17.3502 18.6489C17.472 18.527 17.5405 18.3618 17.5405 18.1895V8.60742" stroke-width="1.29927" stroke-linecap="round" stroke-linejoin="round"/>
<path d="M19.489 10.3942L10.8363 2.11141C10.6333 1.89703 10.1586 1.89459 9.95196 2.11141L1.29926 10.3942" stroke-width="1.29927" stroke-linecap="round" stroke-linejoin="round"/>
<path d="M16.2409 7.26787V2.59863H14.292V5.40017" stroke-width="1.29927" stroke-linecap="round" stroke-linejoin="round"/>
</g>
<defs>
<clipPath id="clip0_1061_2493">
<rect width="20.7882" height="20.7882" fill="white"/>
</clipPath>
</defs>
</svg>
