<svg width="27" height="27" viewBox="0 0 27 27" fill="none" xmlns="http://www.w3.org/2000/svg">
<path d="M13.5 0.5C6.33203 0.5 0.5 6.33203 0.5 13.5C0.5 20.668 6.33203 26.5 13.5 26.5C20.668 26.5 26.5 20.668 26.5 13.5C26.5 6.33203 20.668 0.5 13.5 0.5ZM13.5 2.5C19.5859 2.5 24.5 7.41406 24.5 13.5C24.5 19.5859 19.5859 24.5 13.5 24.5C7.41406 24.5 2.5 19.5859 2.5 13.5C2.5 7.41406 7.41406 2.5 13.5 2.5ZM13.5 5.5C10.75 5.5 8.5 7.75 8.5 10.5C8.5 12.0156 9.20703 13.3633 10.2812 14.2812C8.03125 15.4492 6.5 17.8008 6.5 20.5H8.5C8.5 17.7266 10.7266 15.5 13.5 15.5C16.2734 15.5 18.5 17.7266 18.5 20.5H20.5C20.5 17.8008 18.9688 15.4492 16.7188 14.2812C17.793 13.3633 18.5 12.0156 18.5 10.5C18.5 7.75 16.25 5.5 13.5 5.5ZM13.5 7.5C15.168 7.5 16.5 8.83203 16.5 10.5C16.5 12.168 15.168 13.5 13.5 13.5C11.832 13.5 10.5 12.168 10.5 10.5C10.5 8.83203 11.832 7.5 13.5 7.5Z" fill="white"/>
</svg>
