<svg width="17" height="14" viewBox="0 0 17 14" fill="none" xmlns="http://www.w3.org/2000/svg">
<path d="M1.6875 0V2.05664L0 4.30664V4.5C0 5.42531 0.762187 6.1875 1.6875 6.1875V13.5H15.1875V6.1875C16.1128 6.1875 16.875 5.42531 16.875 4.5V4.30664L15.1875 2.05664V0H1.6875ZM2.8125 1.125H14.0625V1.6875H2.8125V1.125ZM2.53125 2.8125H14.3438L15.6973 4.62305C15.636 4.86661 15.4513 5.0625 15.1875 5.0625C14.8753 5.0625 14.625 4.81219 14.625 4.5H13.5C13.5 4.81219 13.2497 5.0625 12.9375 5.0625C12.6253 5.0625 12.375 4.81219 12.375 4.5H11.25C11.25 4.81219 10.9997 5.0625 10.6875 5.0625C10.3753 5.0625 10.125 4.81219 10.125 4.5H9C9 4.81219 8.74969 5.0625 8.4375 5.0625C8.12531 5.0625 7.875 4.81219 7.875 4.5H6.75C6.75 4.81219 6.49969 5.0625 6.1875 5.0625C5.87531 5.0625 5.625 4.81219 5.625 4.5H4.5C4.5 4.81219 4.24969 5.0625 3.9375 5.0625C3.62531 5.0625 3.375 4.81219 3.375 4.5H2.25C2.25 4.81219 1.99969 5.0625 1.6875 5.0625C1.42369 5.0625 1.23905 4.86661 1.17773 4.62305L2.53125 2.8125ZM2.8125 5.74805C3.11119 6.01805 3.50662 6.1875 3.9375 6.1875C4.36837 6.1875 4.76381 6.01805 5.0625 5.74805C5.36119 6.01805 5.75663 6.1875 6.1875 6.1875C6.61837 6.1875 7.01381 6.01805 7.3125 5.74805C7.61119 6.01805 8.00663 6.1875 8.4375 6.1875C8.86837 6.1875 9.26381 6.01805 9.5625 5.74805C9.86119 6.01805 10.2566 6.1875 10.6875 6.1875C11.1184 6.1875 11.5138 6.01805 11.8125 5.74805C12.1112 6.01805 12.5066 6.1875 12.9375 6.1875C13.3684 6.1875 13.7638 6.01805 14.0625 5.74805V9.5625H2.8125V5.74805ZM2.8125 10.6875H14.0625V12.375H2.8125V10.6875Z" fill="#48484A"/>
</svg>
