<svg width="16" height="12" viewBox="0 0 16 12" fill="none" xmlns="http://www.w3.org/2000/svg">
<path d="M2 0V1.82812L0.5 3.82812V4C0.5 4.8225 1.1775 5.5 2 5.5V12H14V5.5C14.8225 5.5 15.5 4.8225 15.5 4V3.82812L14 1.82812V0H2ZM3 1H13V1.5H3V1ZM2.75 2.5H13.25L14.4531 4.10938C14.3986 4.32587 14.2345 4.5 14 4.5C13.7225 4.5 13.5 4.2775 13.5 4H12.5C12.5 4.2775 12.2775 4.5 12 4.5C11.7225 4.5 11.5 4.2775 11.5 4H10.5C10.5 4.2775 10.2775 4.5 10 4.5C9.7225 4.5 9.5 4.2775 9.5 4H8.5C8.5 4.2775 8.2775 4.5 8 4.5C7.7225 4.5 7.5 4.2775 7.5 4H6.5C6.5 4.2775 6.2775 4.5 6 4.5C5.7225 4.5 5.5 4.2775 5.5 4H4.5C4.5 4.2775 4.2775 4.5 4 4.5C3.7225 4.5 3.5 4.2775 3.5 4H2.5C2.5 4.2775 2.2775 4.5 2 4.5C1.7655 4.5 1.60137 4.32587 1.54688 4.10938L2.75 2.5ZM3 5.10938C3.2655 5.34937 3.617 5.5 4 5.5C4.383 5.5 4.7345 5.34937 5 5.10938C5.2655 5.34937 5.617 5.5 6 5.5C6.383 5.5 6.7345 5.34937 7 5.10938C7.2655 5.34937 7.617 5.5 8 5.5C8.383 5.5 8.7345 5.34937 9 5.10938C9.2655 5.34937 9.617 5.5 10 5.5C10.383 5.5 10.7345 5.34937 11 5.10938C11.2655 5.34937 11.617 5.5 12 5.5C12.383 5.5 12.7345 5.34937 13 5.10938V8.5H3V5.10938ZM3 9.5H13V11H3V9.5Z" fill="#7B7B80"/>
</svg>
