<svg width="40" height="40" viewBox="0 0 40 40" fill="none" xmlns="http://www.w3.org/2000/svg">
<path d="M39.7775 37.7777L4.8475 2.84766L3.5 1.50016L2.2225 0.222656L0 2.44516L7.6825 10.1277L11.55 18.2827L9.1875 22.5702C8.9075 23.0602 8.75 23.6377 8.75 24.2502C8.75 26.1752 10.325 27.7502 12.25 27.7502H25.305L27.72 30.1652C26.845 30.7952 26.2675 31.8277 26.2675 33.0002C26.2675 34.9252 27.825 36.5002 29.75 36.5002C30.9225 36.5002 31.955 35.9227 32.585 35.0302L37.555 40.0002L39.7775 37.7777ZM12.985 24.2502C12.74 24.2502 12.5475 24.0577 12.5475 23.8127L12.6 23.6027L14.175 20.7502H18.305L21.805 24.2502H12.985ZM27.2125 20.7502C28.525 20.7502 29.68 20.0327 30.275 18.9477L36.54 7.59016C36.68 7.34516 36.75 7.04766 36.75 6.75016C36.75 5.78766 35.9625 5.00016 35 5.00016H11.445L27.2125 20.7502ZM12.25 29.5002C10.325 29.5002 8.7675 31.0752 8.7675 33.0002C8.7675 34.9252 10.325 36.5002 12.25 36.5002C14.175 36.5002 15.75 34.9252 15.75 33.0002C15.75 31.0752 14.175 29.5002 12.25 29.5002Z" fill="url(#paint0_linear_3468_12431)"/>
<defs>
<linearGradient id="paint0_linear_3468_12431" x1="19.8887" y1="0.222656" x2="19.8887" y2="59.483" gradientUnits="userSpaceOnUse">
<stop stop-color="#A2B705"/>
<stop offset="1" stop-color="#667403"/>
</linearGradient>
</defs>
</svg>
