<svg width="20" height="20" viewBox="0 0 20 20" fill="none" xmlns="http://www.w3.org/2000/svg">
<g clip-path="url(#clip0_7399_39318)">
<path d="M18.1588 2.72422H1.84117C0.756337 2.72422 -0.1 3.60536 -0.1 4.66539V15.3346C-0.1 16.4194 0.781141 17.2758 1.84117 17.2758H18.1588C19.2437 17.2758 20.1 16.3946 20.1 15.3346V4.66539C20.1 3.58051 19.2189 2.72422 18.1588 2.72422ZM18.7281 15.3346C18.7281 15.6488 18.4737 15.9039 18.1588 15.9039H1.84117C1.52695 15.9039 1.27188 15.6495 1.27188 15.3346V4.66539C1.27188 4.35117 1.52632 4.09609 1.84117 4.09609H18.1588C18.4731 4.09609 18.7281 4.35054 18.7281 4.66539V15.3346Z" fill="#2982E2" stroke="#2982E2" stroke-width="0.2"/>
<path d="M9.43039 14.0796C9.43039 12.9656 8.85752 11.9832 7.99156 11.411C8.30241 11.0246 8.48902 10.5338 8.48902 10.0002C8.48902 8.75671 7.47753 7.74521 6.23406 7.74521C4.99059 7.74521 3.97914 8.75671 3.97914 10.0002C3.97914 10.5338 4.16575 11.0246 4.47656 11.4109C3.61057 11.9831 3.0377 12.9656 3.0377 14.0796C3.0377 14.4584 3.34481 14.7655 3.72363 14.7655H8.74445C9.12328 14.7655 9.43039 14.4584 9.43039 14.0796ZM6.23406 9.11709C6.7209 9.11709 7.11715 9.51333 7.11715 10.0002C7.11715 10.487 6.7209 10.8833 6.23406 10.8833C5.74723 10.8833 5.35102 10.487 5.35102 10.0002C5.35102 9.51333 5.74723 9.11709 6.23406 9.11709ZM7.92475 13.3937H4.54338C4.8151 12.7265 5.47081 12.2551 6.23406 12.2551C6.99732 12.2551 7.653 12.7264 7.92475 13.3937Z" fill="#2982E2" stroke="#2982E2" stroke-width="0.2"/>
<path d="M16.2761 8.37266H11.8828C11.504 8.37266 11.1969 8.67977 11.1969 9.05859C11.1969 9.43742 11.504 9.74453 11.8828 9.74453H16.2761C16.6549 9.74453 16.962 9.43742 16.962 9.05859C16.962 8.67977 16.6549 8.37266 16.2761 8.37266Z" fill="#2982E2" stroke="#2982E2" stroke-width="0.2"/>
<path d="M16.2757 5.23447H3.72363C3.34481 5.23447 3.0377 5.54159 3.0377 5.92041C3.0377 6.29923 3.34481 6.60635 3.72363 6.60635H16.2757C16.6546 6.60635 16.9617 6.29923 16.9617 5.92041C16.9617 5.54159 16.6546 5.23447 16.2757 5.23447Z" fill="#2982E2" stroke="#2982E2" stroke-width="0.2"/>
<path d="M16.2761 10.8829H11.8828C11.504 10.8829 11.1969 11.19 11.1969 11.5688C11.1969 11.9477 11.504 12.2548 11.8828 12.2548H16.2761C16.6549 12.2548 16.962 11.9477 16.962 11.5688C16.962 11.19 16.6549 10.8829 16.2761 10.8829Z" fill="#2982E2" stroke="#2982E2" stroke-width="0.2"/>
<path d="M15.0208 13.3937H11.8828C11.504 13.3937 11.1969 13.7008 11.1969 14.0796C11.1969 14.4584 11.504 14.7655 11.8828 14.7655H15.0208C15.3996 14.7655 15.7068 14.4584 15.7068 14.0796C15.7068 13.7008 15.3996 13.3937 15.0208 13.3937Z" fill="#2982E2" stroke="#2982E2" stroke-width="0.2"/>
</g>
<defs>
<clipPath id="clip0_7399_39318">
<rect width="20" height="20" fill="white"/>
</clipPath>
</defs>
</svg>
