<svg width="23" height="22" viewBox="0 0 23 22" fill="none" xmlns="http://www.w3.org/2000/svg">
<g clip-path="url(#clip0_9925_36155)">
<path d="M20.4375 19.25H2.5625C1.4234 19.25 0.5 18.3266 0.5 17.1875V4.8125C0.5 3.6734 1.4234 2.75 2.5625 2.75H20.4375C21.5766 2.75 22.5 3.6734 22.5 4.8125V17.1875C22.5 18.3266 21.5766 19.25 20.4375 19.25ZM5.3125 5.15625C3.98356 5.15625 2.90625 6.23356 2.90625 7.5625C2.90625 8.89144 3.98356 9.96875 5.3125 9.96875C6.64144 9.96875 7.71875 8.89144 7.71875 7.5625C7.71875 6.23356 6.64144 5.15625 5.3125 5.15625ZM3.25 16.5H19.75V11.6875L15.9896 7.92709C15.7882 7.72574 15.4618 7.72574 15.2604 7.92709L9.4375 13.75L7.05209 11.3646C6.85074 11.1632 6.52426 11.1632 6.32287 11.3646L3.25 14.4375V16.5Z" fill="#2982E2"/>
</g>
<defs>
<clipPath id="clip0_9925_36155">
<rect width="22" height="22" fill="white" transform="translate(0.5)"/>
</clipPath>
</defs>
</svg>
