<svg width="21" height="21" viewBox="0 0 21 21" fill="none" xmlns="http://www.w3.org/2000/svg">
<path d="M6.5625 5.90625H18.375" stroke-width="1.3125" stroke-linecap="round" stroke-linejoin="round"/>
<path d="M6.5625 10.5H18.375" stroke-width="1.3125" stroke-linecap="round" stroke-linejoin="round"/>
<path d="M6.5625 15.0938H18.375" stroke-width="1.3125" stroke-linecap="round" stroke-linejoin="round"/>
<path d="M3.28125 6.5625C3.64369 6.5625 3.9375 6.26869 3.9375 5.90625C3.9375 5.54381 3.64369 5.25 3.28125 5.25C2.91881 5.25 2.625 5.54381 2.625 5.90625C2.625 6.26869 2.91881 6.5625 3.28125 6.5625Z" stroke-width="1.3125" stroke-linecap="round" stroke-linejoin="round"/>
<path d="M3.28125 11.1562C3.64369 11.1562 3.9375 10.8624 3.9375 10.5C3.9375 10.1376 3.64369 9.84375 3.28125 9.84375C2.91881 9.84375 2.625 10.1376 2.625 10.5C2.625 10.8624 2.91881 11.1562 3.28125 11.1562Z" stroke-width="1.3125" stroke-linecap="round" stroke-linejoin="round"/>
<path d="M3.28125 15.75C3.64369 15.75 3.9375 15.4562 3.9375 15.0938C3.9375 14.7313 3.64369 14.4375 3.28125 14.4375C2.91881 14.4375 2.625 14.7313 2.625 15.0938C2.625 15.4562 2.91881 15.75 3.28125 15.75Z" stroke-width="1.3125" stroke-linecap="round" stroke-linejoin="round"/>
</svg>
