<svg width="20" height="20" viewBox="0 0 20 20" fill="none" xmlns="http://www.w3.org/2000/svg">
<g clip-path="url(#clip0_6841_36107)">
<path d="M15.8333 9.1665H4.16667C3.24619 9.1665 2.5 9.9127 2.5 10.8332V17.4998C2.5 18.4203 3.24619 19.1665 4.16667 19.1665H15.8333C16.7538 19.1665 17.5 18.4203 17.5 17.4998V10.8332C17.5 9.9127 16.7538 9.1665 15.8333 9.1665Z" stroke="#2982E2" stroke-width="2" stroke-miterlimit="10" stroke-linecap="square"/>
<path d="M9.99967 15.8333C10.9201 15.8333 11.6663 15.0871 11.6663 14.1667C11.6663 13.2462 10.9201 12.5 9.99967 12.5C9.0792 12.5 8.33301 13.2462 8.33301 14.1667C8.33301 15.0871 9.0792 15.8333 9.99967 15.8333Z" stroke="#2982E2" stroke-width="2" stroke-miterlimit="10" stroke-linecap="square"/>
<path d="M14.1663 5.83321V4.99988C14.1772 3.90591 13.7532 2.85241 12.9874 2.07104C12.2217 1.28967 11.177 0.844428 10.083 0.833212H9.99967C8.90571 0.822327 7.8522 1.24638 7.07084 2.01212C6.28947 2.77786 5.84422 3.82258 5.83301 4.91655V5.83321" stroke="#2982E2" stroke-width="2" stroke-miterlimit="10" stroke-linecap="square"/>
</g>
<defs>
<clipPath id="clip0_6841_36107">
<rect width="20" height="20" fill="white"/>
</clipPath>
</defs>
</svg>
