<svg width="20" height="20" viewBox="0 0 20 20" fill="none" xmlns="http://www.w3.org/2000/svg">
<path d="M1.25 4.375V15.625H18.75V4.375H1.25ZM2.5 5.625H17.5V14.375H2.5V5.625ZM3.75 6.875V8.125H10V6.875H3.75ZM12.5 6.875V10H16.25V6.875H12.5ZM3.75 8.75V10H8.125V8.75H3.75ZM5.3125 10.625C4.93438 10.625 4.66844 10.8402 4.49219 11.0352C4.31656 11.2308 4.18703 11.4478 4.08203 11.6797C3.87203 12.1466 3.75 12.6488 3.75 13.125H5C5 12.925 5.0975 12.49 5.23438 12.1875C5.27313 12.0994 5.31281 12.0698 5.35156 12.0117C5.39781 12.0755 5.43203 12.1164 5.48828 12.207C5.57891 12.3533 5.67891 12.5297 5.80078 12.6953C5.92266 12.8616 6.07172 13.1345 6.54297 13.1445C6.91422 13.152 7.02844 13.0178 7.14844 12.9297C7.26781 12.8416 7.35078 12.7589 7.44141 12.6758C7.50266 12.6195 7.55141 12.5784 7.59766 12.5391C7.61453 12.5634 7.68419 12.6045 8.02856 12.7539C8.44544 12.9364 9.07688 13.125 10 13.125V11.875C9.23125 11.875 8.83078 11.7505 8.53516 11.6211C8.23953 11.4917 8.015 11.25 7.5 11.25C7.12375 11.25 7.02906 11.3962 6.91406 11.4844C6.81156 11.5625 6.74078 11.6456 6.66016 11.7188C6.62328 11.66 6.60625 11.6306 6.5625 11.5625C6.4575 11.3919 6.33297 11.1988 6.15234 11.0156C5.97172 10.8325 5.68625 10.625 5.3125 10.625ZM12.5 11.875V13.125H16.25V11.875H12.5Z" fill="#FC832D"/>
</svg>
