<svg width="232" height="232" viewBox="0 0 232 232" fill="none" xmlns="http://www.w3.org/2000/svg">
<path opacity="0.05" d="M116 232C180.065 232 232 180.065 232 116C232 51.935 180.065 0 116 0C51.935 0 0 51.935 0 116C0 180.065 51.935 232 116 232Z" fill="#FF3B30"/>
<path opacity="0.05" d="M116 212C169.019 212 212 169.019 212 116C212 62.9807 169.019 20 116 20C62.9807 20 20 62.9807 20 116C20 169.019 62.9807 212 116 212Z" fill="#FF3B30"/>
<path d="M115 61C84.7715 61 60 85.7715 60 116C60 146.229 84.7715 171 115 171C145.229 171 170 146.229 170 116C170 85.7715 145.229 61 115 61Z" fill="#FF3B30"/>
<path d="M124.088 116L142.328 134.24L133.24 143.328L115 125.088L96.7595 143.328L87.6719 134.24L105.912 116L87.6719 97.7595L96.7595 88.6719L115 106.912L133.24 88.6719L142.328 97.7595L124.088 116Z" fill="white"/>
</svg>
