<svg width="21" height="20" viewBox="0 0 21 20" fill="none" xmlns="http://www.w3.org/2000/svg">
<g clip-path="url(#clip0_3869_16099)">
<path d="M7.16683 12.5H1.3335V4.16663H19.6668V13.3333"  stroke="#2982E2"  stroke-width="2" stroke-miterlimit="10" stroke-linecap="square"/>
<path d="M4.66699 12.5V12.9166C4.66699 16.3683 7.46533 19.1666 10.917 19.1666C14.3687 19.1666 17.167 16.3683 17.167 12.9166V6.66663C15.3262 6.66663 13.8337 8.15913 13.8337 9.99996V11.6666C11.9928 11.6666 10.5003 13.1591 10.5003 15"  stroke="#2982E2"  stroke-width="2" stroke-miterlimit="10" stroke-linecap="square"/>
<path d="M10.5003 9.16667C10.9606 9.16667 11.3337 8.79357 11.3337 8.33333C11.3337 7.8731 10.9606 7.5 10.5003 7.5C10.0401 7.5 9.66699 7.8731 9.66699 8.33333C9.66699 8.79357 10.0401 9.16667 10.5003 9.16667Z"  stroke="#2982E2"  stroke-width="2" stroke-miterlimit="10" stroke-linecap="square"/>
<path d="M10.5003 9.16667C10.9606 9.16667 11.3337 8.79357 11.3337 8.33333C11.3337 7.8731 10.9606 7.5 10.5003 7.5C10.0401 7.5 9.66699 7.8731 9.66699 8.33333C9.66699 8.79357 10.0401 9.16667 10.5003 9.16667Z" fill="#2982E2"/>
<path d="M16.3337 4.16665V3.33331C16.3337 1.95248 15.2145 0.833313 13.8337 0.833313H7.16699C5.78616 0.833313 4.66699 1.95248 4.66699 3.33331V4.16665"  stroke="#2982E2"  stroke-width="2" stroke-miterlimit="10" stroke-linecap="square"/>
</g>
<defs>
<clipPath id="clip0_3869_16099">
<rect width="20" height="20" fill="white" transform="translate(0.5)"/>
</clipPath>
</defs>
</svg>
