<svg width="14" height="14" viewBox="0 0 14 14" fill="none" xmlns="http://www.w3.org/2000/svg">
<path fill-rule="evenodd" clip-rule="evenodd" d="M12.4038 1.33784C12.176 1.11004 11.8066 1.11004 11.5788 1.33784L11.0699 1.84672C10.4194 1.53597 9.6167 1.65 9.07794 2.18879L2.89075 8.37594L6.19055 11.6758L12.3777 5.48862C12.9166 4.94983 13.0305 4.14713 12.7198 3.49663L13.2287 2.98776C13.4565 2.75996 13.4565 2.39061 13.2287 2.16281L12.4038 1.33784ZM9.91409 6.30237L6.19055 10.0259L4.54066 8.37594L8.26419 4.65247L9.91409 6.30237ZM10.9748 5.24172L11.5528 4.66366C11.7806 4.43585 11.7806 4.06651 11.5528 3.8387L10.7278 3.01374C10.5 2.78594 10.1307 2.78594 9.90288 3.01374L9.3248 3.59181L10.9748 5.24172Z" fill="#667403"/>
<path d="M1.16663 13.388L2.40429 8.85059L5.70389 12.1506L1.16663 13.388Z" fill="#667403"/>
</svg>
