<svg
  xmlns="http://www.w3.org/2000/svg"
  width="8"
  height="8"
  fill="none"
  viewBox="0 0 8 8"
>
  <path
    fill="#fff"
    d="M7.748.53L7.47.252A.84.84 0 006.86 0a.84.84 0 00-.608.252L.757 5.757a.295.295 0 00-.079.121L.026 7.522a.333.333 0 00.078.374c.061.07.157.104.244.104a.349.349 0 00.13-.026L2.13 7.33a.365.365 0 00.122-.078l5.505-5.504A.863.863 0 007.747.53zM1.287 6.235l.487.487-.809.313.322-.8zM7.252 1.26l-4.8 4.8-.504-.504L6.739.747a.177.177 0 01.122-.051c.026 0 .078.008.122.052l.278.278c.06.061.06.165-.009.235z"
  ></path>
</svg>