<svg width="16" height="16" viewBox="0 0 16 16" fill="none" xmlns="http://www.w3.org/2000/svg">
<g clip-path="url(#clip0_1176_5704)">
<path d="M15.4957 1.06087L14.9391 0.504348C14.6087 0.173913 14.1913 0 13.7217 0C13.2522 0 12.8348 0.173913 12.5043 0.504348L1.51304 11.513C1.44348 11.5826 1.3913 11.6522 1.35652 11.7565L0.0521739 15.0435C-0.0521739 15.3043 0 15.6 0.208696 15.7913C0.330435 15.9304 0.521739 16 0.695652 16C0.782609 16 0.869565 15.9826 0.956522 15.9478L4.26087 14.6609C4.34783 14.6261 4.43478 14.5739 4.50435 14.5043L15.513 3.49565C16.1739 2.83478 16.1739 1.73913 15.4957 1.06087ZM2.57391 12.4696L3.54783 13.4435L1.93043 14.0696L2.57391 12.4696ZM14.5043 2.52174L4.90435 12.1217L3.89565 11.113L13.4783 1.49565C13.5652 1.4087 13.6696 1.3913 13.7217 1.3913C13.7739 1.3913 13.8783 1.4087 13.9652 1.49565L14.5217 2.05217C14.6435 2.17391 14.6435 2.38261 14.5043 2.52174Z" fill="#48484A"/>
</g>
<defs>
<clipPath id="clip0_1176_5704">
<rect width="16" height="16" fill="white"/>
</clipPath>
</defs>
</svg>
