<svg width="23" height="22" viewBox="0 0 23 22" fill="none" xmlns="http://www.w3.org/2000/svg">
<g clip-path="url(#clip0_8082_41481)">
<path d="M21.8065 1.4587L21.0413 0.693478C20.587 0.23913 20.013 0 19.3674 0C18.7217 0 18.1478 0.23913 17.6935 0.693478L2.58043 15.8304C2.48478 15.9261 2.41304 16.0217 2.36522 16.1652L0.571739 20.6848C0.428261 21.0435 0.5 21.45 0.786957 21.713C0.954348 21.9043 1.21739 22 1.45652 22C1.57609 22 1.69565 21.9761 1.81522 21.9283L6.3587 20.1587C6.47826 20.1109 6.59783 20.0391 6.69348 19.9435L21.8304 4.80652C22.7391 3.89783 22.7391 2.3913 21.8065 1.4587ZM4.03913 17.1457L5.37826 18.4848L3.15435 19.3457L4.03913 17.1457ZM20.4435 3.46739L7.24348 16.6674L5.85652 15.2804L19.0326 2.05652C19.1522 1.93696 19.2957 1.91304 19.3674 1.91304C19.4391 1.91304 19.5826 1.93696 19.7022 2.05652L20.4674 2.82174C20.6348 2.98913 20.6348 3.27609 20.4435 3.46739Z" fill="#2982E2"/>
</g>
<defs>
<clipPath id="clip0_8082_41481">
<rect width="22" height="22" fill="white" transform="translate(0.5)"/>
</clipPath>
</defs>
</svg>
