<svg width="20" height="20" viewBox="0 0 20 20" fill="none" xmlns="http://www.w3.org/2000/svg">
<path d="M16.3423 6.26038L15.5293 7.07342C16.9927 8.5369 16.9927 10.8134 15.5293 12.3582L16.3423 13.1713C18.3749 11.3013 18.3749 8.21168 16.3423 6.26038ZM14.6349 7.96777L13.8219 8.78082C14.2284 9.34995 14.2284 10.0817 13.8219 10.6508L14.6349 11.4639C15.6106 10.4882 15.6106 9.02473 14.6349 7.96777ZM11.3827 0.812988H3.25231C2.35796 0.812988 1.62622 1.54473 1.62622 2.43908V17.0739C1.62622 17.9682 2.35796 18.6999 3.25231 18.6999H11.3827C12.2771 18.6999 13.0088 17.9682 13.0088 17.0739V2.43908C13.0088 1.54473 12.2771 0.812988 11.3827 0.812988ZM11.3827 16.2608H3.25231V3.25212H11.3827V16.2608Z" fill="white"/>
</svg>
