<svg width="20" height="20" viewBox="0 0 20 20" fill="none" xmlns="http://www.w3.org/2000/svg">
<g clip-path="url(#clip0_6841_36162)">
<path d="M11.9234 12.6593L10.1392 14.4168C9.20891 13.8554 8.3446 13.1912 7.56257 12.4368C6.80959 11.6544 6.1458 10.7907 5.5834 9.86181L7.34173 8.07764C7.44725 7.96976 7.51851 7.83308 7.54653 7.6848C7.57456 7.53652 7.5581 7.38326 7.49923 7.24431L5.66673 2.96681C5.59431 2.79831 5.46375 2.66144 5.29886 2.58113C5.13397 2.50083 4.94572 2.48244 4.7684 2.52931L1.40673 3.41681C1.23843 3.46042 1.08997 3.56001 0.985775 3.69919C0.881577 3.83837 0.827841 4.00887 0.8334 4.18264C1.04749 8.09216 2.67313 11.7911 5.4084 14.5926C8.21088 17.3283 11.9112 18.9537 15.8217 19.1668C15.9953 19.1723 16.1656 19.1185 16.3045 19.0143C16.4434 18.9101 16.5426 18.7616 16.5859 18.5935L17.4742 15.2301C17.5213 15.0529 17.5032 14.8647 17.423 14.6998C17.3428 14.5348 17.206 14.4042 17.0376 14.3318L12.7634 12.5001C12.6235 12.4399 12.4687 12.4229 12.3191 12.4513C12.1694 12.4796 12.0316 12.5521 11.9234 12.6593V12.6593Z" stroke="#2982E2" stroke-width="2" stroke-miterlimit="10" stroke-linecap="square"/>
<path d="M11.667 0.833496C13.6561 0.833496 15.5638 1.62367 16.9703 3.0302C18.3768 4.43672 19.167 6.34437 19.167 8.3335" stroke="#2982E2" stroke-width="2" stroke-miterlimit="10" stroke-linecap="square"/>
<path d="M11.667 4.16699C12.7721 4.16699 13.8319 4.60598 14.6133 5.38738C15.3947 6.16878 15.8337 7.22859 15.8337 8.33366" stroke="#2982E2" stroke-width="2" stroke-miterlimit="10" stroke-linecap="square"/>
</g>
<defs>
<clipPath id="clip0_6841_36162">
<rect width="20" height="20" fill="white"/>
</clipPath>
</defs>
</svg>
