<svg width="20" height="20" viewBox="0 0 20 20" fill="none" xmlns="http://www.w3.org/2000/svg">
<path d="M16.6667 1.66663C17.1088 1.66663 17.5327 1.84222 17.8453 2.15478C18.1578 2.46734 18.3334 2.89127 18.3334 3.33329V16.6666C18.3334 17.1087 18.1578 17.5326 17.8453 17.8451C17.5327 18.1577 17.1088 18.3333 16.6667 18.3333H3.33341C2.89139 18.3333 2.46746 18.1577 2.1549 17.8451C1.84234 17.5326 1.66675 17.1087 1.66675 16.6666V3.33329C1.66675 2.89127 1.84234 2.46734 2.1549 2.15478C2.46746 1.84222 2.89139 1.66663 3.33341 1.66663" stroke="#48484A" stroke-width="2" stroke-miterlimit="10" stroke-linecap="square"/>
<path d="M13.3334 9.99996L10.0001 7.49996L6.66675 9.99996V1.66663H13.3334V9.99996Z" stroke="#48484A" stroke-width="2" stroke-miterlimit="10" stroke-linecap="square"/>
</svg>
