<svg width="25" height="24" viewBox="0 0 25 24" fill="none" xmlns="http://www.w3.org/2000/svg">
<path fill-rule="evenodd" clip-rule="evenodd" d="M16.7721 10.2721C16.7721 12.4813 14.9813 14.2721 12.7721 14.2721C10.563 14.2721 8.77214 12.4813 8.77214 10.2721C8.77214 8.06296 10.563 6.27209 12.7721 6.27209C14.9813 6.27209 16.7721 8.06296 16.7721 10.2721ZM14.7721 10.2721C14.7721 11.3767 13.8767 12.2721 12.7721 12.2721C11.6676 12.2721 10.7721 11.3767 10.7721 10.2721C10.7721 9.16753 11.6676 8.27209 12.7721 8.27209C13.8767 8.27209 14.7721 9.16753 14.7721 10.2721Z" fill="#2982E2"/>
<path fill-rule="evenodd" clip-rule="evenodd" d="M6.29417 16.5183C2.69424 13.0909 2.55438 7.39409 5.98178 3.79417C9.40918 0.194244 15.1059 0.054384 18.7059 3.48178C22.3058 6.90918 22.4457 12.606 19.0183 16.2059L12.8124 22.7241L6.29417 16.5183ZM17.5698 14.8268L12.743 19.8965L7.67324 15.0698C4.8733 12.404 4.76452 7.97319 7.43028 5.17325C10.096 2.37331 14.5268 2.26453 17.3268 4.93028C20.1267 7.59603 20.2355 12.0269 17.5698 14.8268Z" fill="#2982E2"/>
</svg>
