<svg width="17" height="18" viewBox="0 0 17 18" fill="none" xmlns="http://www.w3.org/2000/svg">
<path d="M13.2399 5.52901L12.5611 4.73933C11.9856 4.13482 11.293 3.65374 10.5257 3.32537C9.75829 2.99699 8.93213 2.82819 8.09745 2.82923C4.69058 2.82923 1.92651 5.5933 1.92651 9.00017C1.92651 12.407 4.69058 15.1711 8.09745 15.1711C9.37375 15.171 10.6186 14.7754 11.6608 14.0387C12.703 13.3019 13.4913 12.2603 13.9171 11.0571" stroke="white" stroke-width="1.02849" stroke-miterlimit="10" stroke-linecap="round"/>
<path d="M15.2979 3.90321V7.45729C15.2979 7.59367 15.2437 7.72447 15.1473 7.82091C15.0508 7.91735 14.92 7.97153 14.7837 7.97153H11.2296C10.7713 7.97153 10.5418 7.41775 10.8658 7.09378L14.4202 3.53938C14.7441 3.21477 15.2979 3.44489 15.2979 3.90321Z" fill="white"/>
</svg>
