<svg width="21" height="22" viewBox="0 0 21 22" fill="none" xmlns="http://www.w3.org/2000/svg">
<g clip-path="url(#clip0_1176_9585)">
<path d="M10.4209 13.3414C11.8598 13.3414 13.0262 12.175 13.0262 10.7361C13.0262 9.29728 11.8598 8.13086 10.4209 8.13086C8.98209 8.13086 7.81567 9.29728 7.81567 10.7361C7.81567 12.175 8.98209 13.3414 10.4209 13.3414Z" stroke="#1F1F1F" stroke-width="1.30263" stroke-linecap="round" stroke-linejoin="round"/>
<path d="M16.8474 13.3415C16.7318 13.6034 16.6973 13.894 16.7484 14.1757C16.7994 14.4574 16.9337 14.7173 17.1339 14.922L17.186 14.9741C17.3475 15.1354 17.4756 15.327 17.563 15.5378C17.6504 15.7487 17.6954 15.9747 17.6954 16.2029C17.6954 16.4312 17.6504 16.6572 17.563 16.868C17.4756 17.0789 17.3475 17.2704 17.186 17.4318C17.0247 17.5932 16.8332 17.7213 16.6223 17.8087C16.4115 17.8962 16.1855 17.9411 15.9572 17.9411C15.729 17.9411 15.503 17.8962 15.2921 17.8087C15.0813 17.7213 14.8897 17.5932 14.7284 17.4318L14.6763 17.3796C14.4716 17.1794 14.2117 17.0451 13.93 16.9941C13.6483 16.943 13.3577 16.9775 13.0958 17.0931C12.8389 17.2032 12.6199 17.3859 12.4656 17.6189C12.3113 17.8519 12.2285 18.1249 12.2274 18.4044V18.552C12.2274 19.0127 12.0444 19.4544 11.7186 19.7801C11.3929 20.1059 10.9512 20.2889 10.4905 20.2889C10.0299 20.2889 9.5881 20.1059 9.26238 19.7801C8.93666 19.4544 8.75367 19.0127 8.75367 18.552V18.4739C8.74695 18.1864 8.65391 17.9076 8.48664 17.6738C8.31938 17.4399 8.08563 17.2618 7.81578 17.1625C7.55385 17.0469 7.26329 17.0125 6.98158 17.0635C6.69987 17.1146 6.43992 17.2489 6.23525 17.4491L6.18314 17.5012C6.02184 17.6627 5.83029 17.7908 5.61944 17.8782C5.40859 17.9656 5.18258 18.0106 4.95433 18.0106C4.72608 18.0106 4.50007 17.9656 4.28922 17.8782C4.07837 17.7908 3.88682 17.6627 3.72551 17.5012C3.56403 17.3399 3.43592 17.1484 3.34851 16.9375C3.26111 16.7267 3.21612 16.5007 3.21612 16.2724C3.21612 16.0442 3.26111 15.8182 3.34851 15.6073C3.43592 15.3965 3.56403 15.2049 3.72551 15.0436L3.77762 14.9915C3.97782 14.7868 4.11212 14.5269 4.1632 14.2452C4.21428 13.9634 4.1798 13.6729 4.0642 13.411C3.95411 13.1541 3.77133 12.9351 3.53834 12.7808C3.30535 12.6265 3.03233 12.5437 2.75288 12.5425H2.60525C2.14461 12.5425 1.70284 12.3596 1.37712 12.0338C1.0514 11.7081 0.868408 11.2663 0.868408 10.8057C0.868408 10.3451 1.0514 9.90329 1.37712 9.57757C1.70284 9.25185 2.14461 9.06886 2.60525 9.06886H2.68341C2.97085 9.06213 3.24962 8.96909 3.48348 8.80183C3.71734 8.63456 3.89548 8.40081 3.99472 8.13096C4.11032 7.86903 4.14481 7.57848 4.09373 7.29677C4.04265 7.01506 3.90835 6.7551 3.70814 6.55044L3.65604 6.49833C3.49455 6.33702 3.36645 6.14547 3.27904 5.93462C3.19164 5.72377 3.14665 5.49776 3.14665 5.26951C3.14665 5.04127 3.19164 4.81526 3.27904 4.60441C3.36645 4.39356 3.49455 4.202 3.65604 4.0407C3.81735 3.87921 4.0089 3.75111 4.21975 3.6637C4.4306 3.5763 4.65661 3.53131 4.88486 3.53131C5.1131 3.53131 5.33911 3.5763 5.54996 3.6637C5.76081 3.75111 5.95237 3.87921 6.11367 4.0407L6.16578 4.0928C6.37045 4.29301 6.6304 4.42731 6.91211 4.47839C7.19382 4.52947 7.48437 4.49498 7.7463 4.37938H7.81578C8.07263 4.2693 8.29169 4.08651 8.44598 3.85352C8.60028 3.62054 8.68308 3.34751 8.6842 3.06807V2.92044C8.6842 2.4598 8.86719 2.01802 9.19291 1.6923C9.51863 1.36658 9.9604 1.18359 10.421 1.18359C10.8817 1.18359 11.3235 1.36658 11.6492 1.6923C11.9749 2.01802 12.1579 2.4598 12.1579 2.92044V2.99859C12.159 3.27804 12.2418 3.55106 12.3961 3.78405C12.5504 4.01704 12.7695 4.19983 13.0263 4.30991C13.2882 4.42551 13.5788 4.45999 13.8605 4.40891C14.1422 4.35783 14.4022 4.22353 14.6068 4.02333L14.6589 3.97123C14.8202 3.80974 15.0118 3.68163 15.2226 3.59423C15.4335 3.50682 15.6595 3.46183 15.8877 3.46183C16.116 3.46183 16.342 3.50682 16.5529 3.59423C16.7637 3.68163 16.9553 3.80974 17.1166 3.97123C17.2781 4.13253 17.4062 4.32408 17.4936 4.53493C17.581 4.74578 17.626 4.97179 17.626 5.20004C17.626 5.42829 17.581 5.6543 17.4936 5.86515C17.4062 6.076 17.2781 6.26755 17.1166 6.42886L17.0645 6.48096C16.8643 6.68563 16.73 6.94558 16.6789 7.22729C16.6278 7.509 16.6623 7.79956 16.7779 8.06149V8.13096C16.888 8.38781 17.0708 8.60687 17.3037 8.76117C17.5367 8.91547 17.8098 8.99827 18.0892 8.99938H18.2368C18.6975 8.99938 19.1392 9.18237 19.465 9.50809C19.7907 9.83381 19.9737 10.2756 19.9737 10.7362C19.9737 11.1969 19.7907 11.6386 19.465 11.9644C19.1392 12.2901 18.6975 12.4731 18.2368 12.4731H18.1587C17.8792 12.4742 17.6062 12.557 17.3732 12.7113C17.1402 12.8656 16.9574 13.0846 16.8474 13.3415V13.3415Z" stroke="#1F1F1F" stroke-width="1.30263" stroke-linecap="round" stroke-linejoin="round"/>
</g>
<defs>
<clipPath id="clip0_1176_9585">
<rect width="20.8421" height="20.8421" fill="white" transform="translate(0 0.316406)"/>
</clipPath>
</defs>
</svg>
