<svg width="24" height="24" viewBox="0 0 24 24" fill="none" xmlns="http://www.w3.org/2000/svg">
<path d="M1.00012 2H5.79178L6.08497 3.38852L6.65532 6H9.75V8H7.09212L8.62093 15H18.3979L19.987 8H17.25V6H22.5309L22.1933 7.09095L20.0001 16.7519V17H7.00012V16.6776H6.98732L4.21852 4H1.00012V2Z" fill="white"/>
<path d="M9.99988 21.9999C11.1045 21.9999 11.9999 21.1045 11.9999 19.9999C11.9999 18.8953 11.1045 17.9999 9.99988 17.9999C8.89531 17.9999 7.99988 18.8953 7.99988 19.9999C7.99988 21.1045 8.89531 21.9999 9.99988 21.9999Z" fill="white"/>
<path d="M18.9999 19.9999C18.9999 21.1045 18.1045 21.9999 16.9999 21.9999C15.8953 21.9999 14.9999 21.1045 14.9999 19.9999C14.9999 18.8953 15.8953 17.9999 16.9999 17.9999C18.1045 17.9999 18.9999 18.8953 18.9999 19.9999Z" fill="white"/>
<path d="M10.5066 7.77863L13.504 10.7761L14.3593 9.92078L14.359 9.9205L16.5009 7.77866L15.4402 6.71801L14.2573 7.9009V3.23138H12.7573V7.90804L11.5673 6.71797L10.5066 7.77863Z" fill="white"/>
</svg>
