<svg width="34" height="32" viewBox="0 0 34 32" fill="none" xmlns="http://www.w3.org/2000/svg">
<path fill-rule="evenodd" clip-rule="evenodd" d="M1.41699 2.66602H8.20518L8.62053 4.51738L9.42853 7.99935H13.8127V10.666H10.0473L12.2131 19.9993H26.0639L28.3151 10.666H24.4377V7.99935H31.919L31.4407 9.45395L28.3337 22.3352V22.666H9.91699V22.2361H9.89886L5.97639 5.33268H1.41699V2.66602ZM14.1666 29.3326C15.7315 29.3326 17 28.1387 17 26.6659C17 25.1931 15.7315 23.9993 14.1666 23.9993C12.6018 23.9993 11.3333 25.1931 11.3333 26.6659C11.3333 28.1387 12.6018 29.3326 14.1666 29.3326ZM24.0833 29.3326C25.6482 29.3326 26.9166 28.1387 26.9166 26.6659C26.9166 25.1931 25.6482 23.9993 24.0833 23.9993C22.5185 23.9993 21.25 25.1931 21.25 26.6659C21.25 28.1387 22.5185 29.3326 24.0833 29.3326ZM14.5467 11.8006L16.925 9.39087L14.2004 6.63026L15.8923 4.91596L18.6169 7.67657L21.3145 4.94336L23.1359 6.78887L20.4384 9.52208L23.1781 12.298L21.4862 14.0123L18.7464 11.2364L16.3682 13.6461L14.5467 11.8006Z" fill="#2982E2"/>
</svg>
