<svg width="22" height="21" viewBox="0 0 22 21" fill="none" xmlns="http://www.w3.org/2000/svg">
<path d="M0 0.163086H4.79166L5.08485 1.55161L5.6552 4.16309H8.74988V6.16309H6.092L7.62081 13.1631H17.3978L18.9869 6.16309H16.2499V4.16309H21.5308L21.1932 5.25404L19 14.915V15.1631H6V14.8407H5.9872L3.2184 2.16309H0V0.163086Z" fill="white"/>
<path d="M8.99976 20.163C10.1044 20.163 10.9998 19.2676 10.9998 18.163C10.9998 17.0584 10.1044 16.163 8.99976 16.163C7.89519 16.163 6.99976 17.0584 6.99976 18.163C6.99976 19.2676 7.89519 20.163 8.99976 20.163Z" fill="white"/>
<path d="M17.9998 18.163C17.9998 19.2676 17.1044 20.163 15.9998 20.163C14.8952 20.163 13.9998 19.2676 13.9998 18.163C13.9998 17.0584 14.8952 16.163 15.9998 16.163C17.1044 16.163 17.9998 17.0584 17.9998 18.163Z" fill="white"/>
<path d="M9.50647 5.94171L12.5039 8.93915L13.3592 8.08386L13.3589 8.08359L15.5008 5.94175L14.4401 4.88109L13.2572 6.06398V1.39447H11.7572V6.07112L10.5671 4.88105L9.50647 5.94171Z" fill="white"/>
</svg>
