<svg width="25" height="25" viewBox="0 0 25 25" fill="none" xmlns="http://www.w3.org/2000/svg">
<path fill-rule="evenodd" clip-rule="evenodd" d="M6.29166 2.5H1.5V4.5H4.7184L7.4872 17.1776H7.5V17.5H20.5V17.2519L22.6932 7.59095L23.0308 6.5H7.1552L6.58485 3.88852L6.29166 2.5ZM20.4869 8.5H7.592L9.12081 15.5H18.8978L20.4869 8.5Z" fill="#ffffff"/>
<path d="M10.5 22.5C11.6046 22.5 12.5 21.6046 12.5 20.5C12.5 19.3954 11.6046 18.5 10.5 18.5C9.39543 18.5 8.5 19.3954 8.5 20.5C8.5 21.6046 9.39543 22.5 10.5 22.5ZM19.5 20.5C19.5 21.6046 18.6046 22.5 17.5 22.5C16.3954 22.5 15.5 21.6046 15.5 20.5C15.5 19.3954 16.3954 18.5 17.5 18.5C18.6046 18.5 19.5 19.3954 19.5 20.5Z" fill="#ffffff"/>
</svg>
