<svg width="232" height="232" viewBox="0 0 232 232" fill="none" xmlns="http://www.w3.org/2000/svg">
<path opacity="0.05" d="M116 232C180.065 232 232 180.065 232 116C232 51.935 180.065 0 116 0C51.935 0 0 51.935 0 116C0 180.065 51.935 232 116 232Z" fill="url(#paint0_linear_5026_32417)"/>
<path opacity="0.05" d="M116 212C169.019 212 212 169.019 212 116C212 62.9807 169.019 20 116 20C62.9807 20 20 62.9807 20 116C20 169.019 62.9807 212 116 212Z" fill="url(#paint1_linear_5026_32417)"/>
<path d="M107 52H125V74H107V52Z" fill="#555A66"/>
<path d="M116 52H125V74H116V52Z" fill="#333940"/>
<path d="M63.5442 73.6954L75.5997 61.6399L91.201 77.2413L79.1455 89.2968L63.5442 73.6954Z" fill="#555A66"/>
<path d="M152.852 89.3148L140.797 77.2593L156.398 61.6579L168.454 73.7134L152.852 89.3148Z" fill="#333940"/>
<path d="M116 182C148.033 182 174 156.033 174 124C174 91.9675 148.033 66 116 66C83.9675 66 58 91.9675 58 124C58 156.033 83.9675 182 116 182Z" fill="#707789"/>
<path d="M116.062 66C116.041 66 116.021 66.0007 116 66.0007V181.999C116.021 181.999 116.041 182 116.062 182C148.06 182 174 156.033 174 124C174 91.9671 148.06 66 116.062 66Z" fill="#555A66"/>
<path d="M116 168C140.301 168 160 148.301 160 124C160 99.6995 140.301 80 116 80C91.6995 80 72 99.6995 72 124C72 148.301 91.6995 168 116 168Z" fill="white"/>
<path d="M116.062 80C116.041 80 116.021 80.0007 116 80.0007V167.999C116.021 167.999 116.041 168 116.062 168C140.328 168 160 148.3 160 124C160 99.6993 140.328 80 116.062 80Z" fill="#E9EDF5"/>
<path d="M102 46H130V60H102V46Z" fill="#707789"/>
<path d="M116 46H130V60H116V46Z" fill="#555A66"/>
<path d="M112.354 120.31L136.539 96.1241L143.795 103.38L119.61 127.565L112.354 120.31Z" fill="#333940"/>
<path d="M116 133C120.971 133 125 128.971 125 124C125 119.029 120.971 115 116 115C111.029 115 107 119.029 107 124C107 128.971 111.029 133 116 133Z" fill="#707789"/>
<path d="M116.062 115C116.041 115 116.021 115.001 116 115.002V132.998C116.021 132.998 116.041 133 116.062 133C120.998 133 125 128.971 125 124C125 119.03 120.998 115 116.062 115Z" fill="#555A66"/>
<defs>
<linearGradient id="paint0_linear_5026_32417" x1="116" y1="0" x2="116" y2="345.633" gradientUnits="userSpaceOnUse">
<stop stop-color="#A2B705"/>
<stop offset="1" stop-color="#667403"/>
</linearGradient>
<linearGradient id="paint1_linear_5026_32417" x1="116" y1="20" x2="116" y2="306.041" gradientUnits="userSpaceOnUse">
<stop stop-color="#A2B705"/>
<stop offset="1" stop-color="#667403"/>
</linearGradient>
</defs>
</svg>
