<svg width="30" height="24" viewBox="0 0 30 24" fill="none" xmlns="http://www.w3.org/2000/svg">
<path d="M19.5621 8.52489L20.6548 12.3477L21.632 8.53224C21.6636 8.40723 21.7802 8.31899 21.9142 8.31899H22.7378C22.9296 8.31899 23.069 8.49548 23.0178 8.67406L21.5329 13.8688C21.498 13.9907 21.3836 14.0747 21.2529 14.0747H20.1438C20.0131 14.0747 19.8987 13.9907 19.8639 13.8688L18.9509 10.6784L18.038 13.8688C18.0031 13.9907 17.8887 14.0747 17.758 14.0747H16.6467C16.516 14.0747 16.4016 13.9907 16.3667 13.8688L14.8818 8.67406C14.8306 8.49548 14.9701 8.31899 15.1618 8.31899H15.9854C16.1194 8.31899 16.236 8.40723 16.2676 8.53224L17.2448 12.3477L18.3376 8.52489C18.3724 8.40303 18.4868 8.31899 18.6175 8.31899H19.2832C19.4128 8.31899 19.5283 8.40408 19.5621 8.52489ZM13.2967 14.0747H13.9939C14.1541 14.0747 14.2848 13.9497 14.2848 13.7942V11.5503C14.2848 11.024 14.1312 10.608 13.824 10.3002C13.5287 9.99875 13.1507 9.84853 12.6899 9.84853C12.1332 9.84853 11.7268 10.0156 11.4708 10.3496V10.2435C11.4708 10.0891 11.3411 9.96303 11.1799 9.96303H10.4827C10.3225 9.96303 10.1918 10.088 10.1918 10.2435V13.7942C10.1918 13.9486 10.3214 14.0747 10.4827 14.0747H11.1799C11.3401 14.0747 11.4708 13.9497 11.4708 13.7942V11.8298C11.4708 11.5503 11.5416 11.3392 11.6843 11.1963C11.8259 11.0535 12.0199 10.982 12.2639 10.982C12.4796 10.982 12.6572 11.0451 12.7966 11.1711C12.9361 11.2972 13.0058 11.4831 13.0058 11.73V13.7932C13.0058 13.9497 13.1365 14.0747 13.2967 14.0747ZM23.9645 9.96408C23.8044 9.96408 23.6736 10.0891 23.6736 10.2446V13.7953C23.6736 13.9497 23.8033 14.0758 23.9645 14.0758H24.6618C24.8219 14.0758 24.9527 13.9507 24.9527 13.7953V10.2446C24.9527 10.0901 24.823 9.96408 24.6618 9.96408H23.9645ZM26.1815 14.0747H26.8788C27.0389 14.0747 27.1697 13.9497 27.1697 13.7942V11.8298C27.1697 11.5503 27.2405 11.3392 27.3832 11.1963C27.5248 11.0535 27.7188 10.982 27.9628 10.982C28.1785 10.982 28.3561 11.0451 28.4955 11.1711C28.635 11.2972 28.7047 11.4831 28.7047 11.73V13.7932C28.7047 13.9476 28.8343 14.0737 28.9956 14.0737H29.6928C29.853 14.0737 29.9837 13.9486 29.9837 13.7932V11.5493C29.9837 11.023 29.8301 10.607 29.5229 10.2992C29.2276 9.9977 28.8496 9.84748 28.3888 9.84748C27.8321 9.84748 27.4257 10.0145 27.1697 10.3486V10.2425C27.1697 10.088 27.04 9.96198 26.8788 9.96198H26.1815C26.0214 9.96198 25.8907 10.087 25.8907 10.2425V13.7932C25.8907 13.9497 26.0203 14.0747 26.1815 14.0747ZM24.6792 9.64578C24.6247 9.46824 24.7326 9.26129 25.0823 8.97556C25.4538 8.67301 25.4233 8.21079 25.042 8.05006C24.6073 7.86728 24.2173 8.07422 24.1083 8.32214C24.0212 8.13095 23.7968 8.07738 23.6431 8.14566C23.3871 8.25911 23.2074 8.51964 23.422 8.93039C23.6148 9.30016 24.3415 9.49451 24.6792 9.64578ZM4.81211 14.0747H5.59542C5.75557 14.0747 5.88631 13.9497 5.88631 13.7942V9.5859H7.13045C7.2906 9.5859 7.42133 9.46089 7.42133 9.30542V8.59948C7.42133 8.44505 7.29169 8.31899 7.13045 8.31899H3.27709C3.11694 8.31899 2.98621 8.444 2.98621 8.59948V9.30542C2.98621 9.45984 3.11585 9.5859 3.27709 9.5859H4.52123V13.7953C4.52123 13.9497 4.65197 14.0747 4.81211 14.0747ZM8.96398 9.96408H8.26674C8.10659 9.96408 7.97586 10.0891 7.97586 10.2446V13.7953C7.97586 13.9497 8.1055 14.0758 8.26674 14.0758H8.96398C9.12413 14.0758 9.25486 13.9507 9.25486 13.7953V10.2446C9.25377 10.0891 9.12413 9.96408 8.96398 9.96408ZM1.27251 5.41015C1.49149 5.30405 1.71592 5.19689 1.96213 5.14857C4.9581 4.56029 6.72845 6.2537 8.02597 8.9556C8.07282 9.05435 8.17632 9.11738 8.28853 9.11738C8.49225 9.11738 8.7047 9.11843 8.92694 9.11843C9.06094 9.11843 9.17751 9.03018 9.20911 8.90517C11.1854 1.14615 18.4519 0.711241 20.4315 0.64506C20.6809 0.636656 20.6853 0.512696 20.4336 0.512696C13.313 0.510595 9.5501 4.25879 8.65349 7.89564C7.68607 5.90283 4.63018 3.54865 1.22894 5.32611C1.20497 5.33871 1.19516 5.36602 1.20715 5.38914C1.21913 5.41225 1.24855 5.4217 1.27251 5.41015ZM29.9891 15.4057C29.9717 15.3857 29.9434 15.3857 29.9205 15.3994C29.8857 15.4214 29.8508 15.4446 29.8137 15.4677C25.3863 17.6044 23.9645 19.7989 24.543 21.9367C4.63127 19.1119 0.737597 14.3384 0.0871998 13.7617C0.0708582 13.7417 0.0403538 13.7375 0.0196544 13.7532C-0.00104506 13.769 -0.00540283 13.7984 0.0109388 13.8184C1.90439 16.181 5.75666 18.3408 10.8585 19.9008C11.1908 20.0027 11.5187 20.1014 11.8434 20.196C13.3272 20.6477 14.8655 21.0553 16.431 21.4293C19.3322 22.1373 21.754 22.5953 23.5854 22.942C24.6585 23.1448 25.5856 23.3202 26.3014 23.4872C26.3046 23.4883 26.309 23.4883 26.3123 23.4883C26.3275 23.4883 26.3417 23.482 26.3515 23.4694C26.3635 23.4547 26.3646 23.4347 26.3548 23.4179C25.3699 21.7686 25.3209 20.5521 25.8253 19.5037C26.3286 18.4553 27.3745 17.4647 28.6709 16.4846C29.0958 16.1631 29.5359 15.8311 29.9826 15.4698C30.0033 15.4551 30.0055 15.4257 29.9891 15.4057Z" fill="#7B7B80"/>
</svg>
