<svg width="20" height="20" viewBox="0 0 20 20" fill="none" xmlns="http://www.w3.org/2000/svg">
<path d="M11.875 1.875V3.125H14.1211L11.3672 5.87891C10.6348 5.32715 9.73389 5 8.75 5C6.34033 5 4.375 6.96533 4.375 9.375C4.375 11.5723 6.01074 13.3862 8.125 13.6914V15.625H6.25V16.875H8.125V18.75H9.375V16.875H11.25V15.625H9.375V13.6914C11.4893 13.3862 13.125 11.5723 13.125 9.375C13.125 8.39111 12.7979 7.49023 12.2461 6.75781L15 4.00391V6.25H16.25V1.875H11.875ZM8.75 6.25C10.4834 6.25 11.875 7.6416 11.875 9.375C11.875 11.1084 10.4834 12.5 8.75 12.5C7.0166 12.5 5.625 11.1084 5.625 9.375C5.625 7.6416 7.0166 6.25 8.75 6.25Z" fill="#FC832D"/>
</svg>
