<svg width="25" height="23" viewBox="0 0 25 23" fill="none" xmlns="http://www.w3.org/2000/svg">
<path d="M1.74301 18.9532L10.652 2.11122C10.83 1.77488 11.0962 1.49342 11.4222 1.29711C11.7482 1.1008 12.1215 0.99707 12.502 0.99707C12.8825 0.99707 13.2558 1.1008 13.5818 1.29711C13.9078 1.49342 14.174 1.77488 14.352 2.11122L23.261 18.9532C23.4282 19.271 23.5103 19.6268 23.4991 19.9857C23.488 20.3447 23.3841 20.6947 23.1974 21.0015C23.0108 21.3084 22.7479 21.5616 22.4343 21.7367C22.1207 21.9117 21.7671 22.0025 21.408 22.0002H3.59201C3.23321 22.0018 2.88012 21.9105 2.56707 21.7352C2.25402 21.5599 1.99167 21.3065 1.80554 20.9998C1.6194 20.693 1.51582 20.3434 1.50486 19.9847C1.4939 19.6261 1.57594 19.2707 1.74301 18.9532V18.9532Z" stroke="#2982E2" stroke-width="2" stroke-miterlimit="10" stroke-linecap="square"/>
<path d="M12.5 8V14" stroke="#2982E2" stroke-width="2" stroke-miterlimit="10" stroke-linecap="square"/>
<path d="M12.5 19C13.3284 19 14 18.3284 14 17.5C14 16.6716 13.3284 16 12.5 16C11.6716 16 11 16.6716 11 17.5C11 18.3284 11.6716 19 12.5 19Z" fill="#2982E2"/>
</svg>
