<svg width="25" height="24" viewBox="0 0 25 24" fill="none" xmlns="http://www.w3.org/2000/svg">
<g clip-path="url(#clip0_5160_22747)">
<path d="M1.74302 18.9532L10.652 2.11122C10.83 1.77488 11.0963 1.49342 11.4222 1.29711C11.7482 1.1008 12.1215 0.99707 12.502 0.99707C12.8825 0.99707 13.2559 1.1008 13.5818 1.29711C13.9078 1.49342 14.1741 1.77488 14.352 2.11122L23.261 18.9532C23.4282 19.271 23.5103 19.6268 23.4991 19.9857C23.488 20.3447 23.3841 20.6947 23.1975 21.0015C23.0109 21.3084 22.7479 21.5616 22.4343 21.7367C22.1207 21.9117 21.7672 22.0025 21.408 22.0002H3.59202C3.23323 22.0018 2.88014 21.9105 2.56709 21.7352C2.25404 21.5599 1.99169 21.3065 1.80555 20.9998C1.61942 20.693 1.51583 20.3434 1.50488 19.9847C1.49392 19.6261 1.57596 19.2707 1.74302 18.9532V18.9532Z" stroke="#667403" stroke-width="2" stroke-miterlimit="10" stroke-linecap="square"/>
<path d="M12.5 8V14" stroke="#667403" stroke-width="2" stroke-miterlimit="10" stroke-linecap="square"/>
<path d="M12.5 19C13.3284 19 14 18.3284 14 17.5C14 16.6716 13.3284 16 12.5 16C11.6716 16 11 16.6716 11 17.5C11 18.3284 11.6716 19 12.5 19Z" fill="#667403"/>
</g>
<defs>
<clipPath id="clip0_5160_22747">
<rect width="24" height="24" fill="white" transform="translate(0.5)"/>
</clipPath>
</defs>
</svg>
