<svg width="40" height="40" viewBox="0 0 40 40" fill="none" xmlns="http://www.w3.org/2000/svg">
<path d="M18.2545 5.25126C19.9182 4.32981 21.995 4.86523 23.0155 6.43565L23.148 6.65618L35.5624 29.0694C35.858 29.6032 36.0132 30.2035 36.0132 30.8137C36.0132 32.719 34.5329 34.2787 32.6596 34.4054L32.4132 34.4137H7.58796C6.97787 34.4137 6.37777 34.2587 5.84404 33.9632C4.1803 33.0419 3.53223 30.9973 4.32193 29.299L4.43855 29.0697L16.8494 6.65654C17.1766 6.06557 17.6636 5.57859 18.2545 5.25126ZM20.0017 26.4027C19.1192 26.4027 18.4038 27.1181 18.4038 28.0005C18.4038 28.883 19.1192 29.5984 20.0017 29.5984C20.8841 29.5984 21.5995 28.883 21.5995 28.0005C21.5995 27.1181 20.8841 26.4027 20.0017 26.4027ZM19.9982 13.5967C19.1777 13.597 18.5016 14.2149 18.4096 15.0107L18.3988 15.1973L18.4017 23.1987L18.4124 23.3853C18.5052 24.1809 19.1817 24.7984 20.0022 24.7981C20.8228 24.7979 21.4988 24.18 21.591 23.3841L21.6017 23.1976L21.5988 15.1961L21.588 15.0095C21.4953 14.2138 20.8187 13.5964 19.9982 13.5967Z" fill="#FF9500"/>
</svg>
