<svg width="232" height="232" viewBox="0 0 232 232" fill="none" xmlns="http://www.w3.org/2000/svg">
<path opacity="0.05" d="M116 232C180.065 232 232 180.065 232 116C232 51.935 180.065 0 116 0C51.935 0 0 51.935 0 116C0 180.065 51.935 232 116 232Z" fill="#34C759"/>
<path opacity="0.05" d="M116 212C169.019 212 212 169.019 212 116C212 62.9807 169.019 20 116 20C62.9807 20 20 62.9807 20 116C20 169.019 62.9807 212 116 212Z" fill="#34C759"/>
<path d="M171 115.992C171 146.369 146.373 170.993 115.999 170.993C85.627 170.993 61 146.369 61 115.992C61 85.625 85.626 61 115.999 61C146.373 61 171 85.625 171 115.992Z" fill="#34C759"/>
<path d="M106.83 141.685L84.8147 119.669L92.1493 112.331L106.83 127.009L139.85 93.9839L147.185 101.324L106.83 141.685Z" fill="white"/>
</svg>
